<?xml version="1.0" standalone="no"?>
<!DOCTYPE svg PUBLIC "-//W3C//DTD SVG 20010904//EN"
 "http://www.w3.org/TR/2001/REC-SVG-20010904/DTD/svg10.dtd">
<svg version="1.0" xmlns="http://www.w3.org/2000/svg"
 width="180.000000pt" height="180.000000pt" viewBox="0 0 180.000000 180.000000"
 preserveAspectRatio="xMidYMid meet">
<metadata>
Created by potrace 1.16, written by Peter Selinger 2001-2019
</metadata>
<g transform="translate(0.000000,180.000000) scale(0.100000,-0.100000)"
fill="#000000" stroke="none">
<path d="M720 1666 c-146 -35 -269 -104 -376 -210 -435 -436 -234 -1164 364
-1317 90 -23 275 -25 367 -5 260 58 483 255 571 506 80 230 47 485 -90 688
-56 82 -74 102 -151 169 -78 66 -161 114 -260 148 -71 25 -97 28 -225 31 -95
2 -164 -2 -200 -10z m630 -419 c0 -29 -148 -756 -160 -785 -6 -13 -18 -22 -31
-22 -17 0 -117 68 -265 182 -7 5 -29 -9 -61 -39 -96 -94 -101 -97 -117 -84 -8
6 -35 77 -60 156 l-47 143 -117 37 c-64 20 -123 38 -130 41 -8 2 -12 12 -10
21 2 13 56 38 188 89 409 157 636 245 655 254 106 50 155 52 155 7z"/>
<path d="M1057 1082 c-59 -37 -174 -109 -256 -160 -82 -51 -154 -99 -161 -107
-9 -11 -4 -39 26 -140 21 -69 43 -125 49 -125 12 0 25 71 25 135 0 27 18 46
137 150 303 266 317 280 310 299 -4 9 -10 16 -14 16 -4 0 -56 -31 -116 -68z"/>
</g>
</svg>
